<?xml version="1.0" standalone="no"?>
<!DOCTYPE svg PUBLIC "-//W3C//DTD SVG 20010904//EN"
 "http://www.w3.org/TR/2001/REC-SVG-20010904/DTD/svg10.dtd">
<svg version="1.0" xmlns="http://www.w3.org/2000/svg"
 width="700.000000pt" height="700.000000pt" viewBox="0 0 700.000000 700.000000"
 preserveAspectRatio="xMidYMid meet">
<metadata>
Created by potrace 1.14, written by Peter Selinger 2001-2017
</metadata>
<g transform="translate(0.000000,700.000000) scale(0.100000,-0.100000)"
fill="#000000" stroke="none">
<path d="M0 3500 l0 -3500 3500 0 3500 0 0 3500 0 3500 -3500 0 -3500 0 0
-3500z m4480 120 l0 -2180 -565 0 -565 0 0 795 0 795 -670 0 -670 0 0 -795 0
-795 -565 0 -565 0 0 2145 0 2145 565 0 565 0 0 -735 0 -735 670 0 670 0 0
770 0 770 565 0 565 0 0 -2180z m1255 -805 c248 -63 443 -261 506 -515 28
-109 23 -270 -11 -370 -83 -249 -276 -421 -530 -476 -265 -56 -562 66 -714
295 -85 127 -118 238 -117 394 0 117 17 191 66 294 100 213 291 355 530 394
66 10 195 3 270 -16z"/>
</g>
</svg>
